<?xml version="1.0" standalone="no"?>
<!DOCTYPE svg PUBLIC "-//W3C//DTD SVG 20010904//EN"
 "http://www.w3.org/TR/2001/REC-SVG-20010904/DTD/svg10.dtd">
<svg version="1.0" xmlns="http://www.w3.org/2000/svg"
 width="512.000000pt" height="512.000000pt" viewBox="0 0 512.000000 512.000000"
 preserveAspectRatio="xMidYMid meet">

<g transform="translate(0.000000,512.000000) scale(0.100000,-0.100000)"
fill="#000000" stroke="none">
<path d="M2380 4794 c-539 -49 -1022 -274 -1401 -653 -346 -347 -555 -760
-636 -1256 -24 -153 -24 -497 0 -650 24 -147 70 -327 113 -444 256 -688 833
-1213 1534 -1395 221 -57 327 -70 570 -70 236 0 343 12 554 65 778 195 1407
820 1610 1599 57 221 70 327 70 570 0 243 -13 349 -70 570 -203 780 -829 1402
-1610 1599 -65 17 -164 37 -219 46 -97 15 -425 27 -515 19z m330 -214 c720
-55 1357 -488 1670 -1135 142 -293 202 -557 202 -885 0 -328 -60 -592 -202
-886 -257 -533 -754 -935 -1330 -1079 -319 -80 -661 -80 -980 0 -579 144
-1069 542 -1331 1080 -442 908 -146 2003 695 2566 283 190 632 313 959 338
150 12 170 12 317 1z"/>
<path d="M1796 3505 c-170 -43 -319 -177 -377 -340 -27 -74 -36 -184 -20 -224
17 -39 68 -66 113 -57 53 10 78 43 89 121 12 86 40 150 87 198 128 133 317
138 451 12 57 -53 87 -116 100 -210 11 -78 36 -111 89 -121 45 -9 96 18 113
57 16 40 7 150 -19 222 -54 152 -180 275 -333 328 -82 28 -213 34 -293 14z"/>
<path d="M3076 3505 c-170 -43 -319 -177 -377 -340 -27 -74 -36 -184 -20 -224
17 -39 68 -66 113 -57 53 10 78 43 89 121 12 86 40 150 87 198 128 133 317
138 451 12 57 -53 87 -116 100 -210 11 -78 36 -111 89 -121 45 -9 96 18 113
57 16 40 7 150 -19 222 -54 152 -180 275 -333 328 -82 28 -213 34 -293 14z"/>
<path d="M1179 2421 c-36 -36 -38 -73 -7 -185 132 -495 530 -886 1032 -1016
761 -196 1537 257 1746 1020 29 106 27 145 -9 181 -21 21 -39 29 -65 29 -79 0
-99 -25 -141 -178 -67 -248 -240 -493 -458 -651 -369 -268 -864 -307 -1271
-98 -317 162 -539 436 -630 776 -13 48 -30 97 -37 109 -32 50 -115 57 -160 13z"/>
</g>
</svg>
