<?xml version="1.0" encoding="UTF-8"?>
<svg version="1.1" xmlns="http://www.w3.org/2000/svg" width="512" height="512">
<path d="M0 0 C1.4240918 0.29003906 1.4240918 0.29003906 2.87695312 0.5859375 C32.4362514 6.66670743 61.5852817 17.96175143 86 36 C87.24449847 36.8871302 88.48931425 37.77381536 89.734375 38.66015625 C98.92507315 45.29232066 107.28862646 52.55425882 115.40771484 60.45458984 C116.77528763 61.7819029 118.16130336 63.09016686 119.55078125 64.39453125 C126.10868436 70.67287899 131.56278005 77.75686018 137 85 C137.42958008 85.56879883 137.85916016 86.13759766 138.30175781 86.72363281 C159.04090031 114.35985734 171.95547887 145.29647356 179 179 C179.18079102 179.82000488 179.36158203 180.64000977 179.54785156 181.48486328 C184.96936103 206.87326397 184.54137771 237.68232863 179 263 C178.70996094 264.4240918 178.70996094 264.4240918 178.4140625 265.87695312 C172.33329257 295.4362514 161.03824857 324.5852817 143 349 C142.1128698 350.24449847 141.22618464 351.48931425 140.33984375 352.734375 C133.70767934 361.92507315 126.44574118 370.28862646 118.54541016 378.40771484 C117.2180971 379.77528763 115.90983314 381.16130336 114.60546875 382.55078125 C108.32712101 389.10868436 101.24313982 394.56278005 94 400 C93.43120117 400.42958008 92.86240234 400.85916016 92.27636719 401.30175781 C64.64014266 422.04090031 33.70352644 434.95547887 0 442 C-0.82000488 442.18079102 -1.64000977 442.36158203 -2.48486328 442.54785156 C-27.87349879 447.96941117 -58.68170406 447.53095766 -84 442 C-84.84111328 441.82839355 -85.68222656 441.65678711 -86.54882812 441.47998047 C-116.1207155 435.39261072 -145.3888633 423.64630995 -170 406 C-170.60134766 405.57380371 -171.20269531 405.14760742 -171.82226562 404.70849609 C-181.70395833 397.66965217 -190.71488903 390.00402006 -199.40771484 381.54541016 C-200.77528763 380.2180971 -202.16130336 378.90983314 -203.55078125 377.60546875 C-210.10868436 371.32712101 -215.56278005 364.24313982 -221 357 C-221.64437012 356.14680176 -221.64437012 356.14680176 -222.30175781 355.27636719 C-243.04090031 327.64014266 -255.95547887 296.70352644 -263 263 C-263.18079102 262.17999512 -263.36158203 261.35999023 -263.54785156 260.51513672 C-268.96936103 235.12673603 -268.54137771 204.31767137 -263 179 C-262.70996094 177.5759082 -262.70996094 177.5759082 -262.4140625 176.12304688 C-256.33329257 146.5637486 -245.03824857 117.4147183 -227 93 C-226.1128698 91.75550153 -225.22618464 90.51068575 -224.33984375 89.265625 C-217.70767934 80.07492685 -210.44574118 71.71137354 -202.54541016 63.59228516 C-201.2180971 62.22471237 -199.90983314 60.83869664 -198.60546875 59.44921875 C-192.32712101 52.89131564 -185.24313982 47.43721995 -178 42 C-177.43120117 41.57041992 -176.86240234 41.14083984 -176.27636719 40.69824219 C-148.64014266 19.95909969 -117.70352644 7.04452113 -84 0 C-83.17999512 -0.18079102 -82.35999023 -0.36158203 -81.51513672 -0.54785156 C-56.12673603 -5.96936103 -25.31767137 -5.54137771 0 0 Z M-182.3515625 68.52734375 C-184.24682442 70.29681395 -186.13127883 71.95621589 -188.1328125 73.59375 C-191.88322227 76.74123286 -194.85365968 80.2656756 -198 84 C-198.74121094 84.84175781 -199.48242188 85.68351562 -200.24609375 86.55078125 C-229.02202038 119.83877318 -248.79231163 165.26162467 -249.23828125 209.65234375 C-249.2480751 210.46137146 -249.25786896 211.27039917 -249.26795959 212.10394287 C-249.80272845 267.78246526 -233.37542422 320.39510391 -194.47265625 361.3515625 C-192.70318605 363.24682442 -191.04378411 365.13127883 -189.40625 367.1328125 C-186.25876714 370.88322227 -182.7343244 373.85365968 -179 377 C-178.15824219 377.74121094 -177.31648438 378.48242188 -176.44921875 379.24609375 C-136.29137248 413.96069115 -82.38461045 431.78722307 -29.44360352 428.67700195 C0.65701021 426.43207397 29.42280283 418.21066461 56 404 C56.60585938 403.67773438 57.21171875 403.35546875 57.8359375 403.0234375 C72.18481587 395.31639803 84.78561881 385.71254753 97 375 C97.92039062 374.20335937 98.84078125 373.40671875 99.7890625 372.5859375 C104.97079651 368.03039491 109.59035179 363.29724335 114 358 C114.73605469 357.16339844 115.47210938 356.32679688 116.23046875 355.46484375 C145.0220115 322.18749625 164.79232368 276.73717662 165.23828125 232.34765625 C165.2480751 231.53862854 165.25786896 230.72960083 165.26795959 229.89605713 C165.63416751 191.76759212 159.08377691 156.82080415 141 123 C140.67773438 122.39414063 140.35546875 121.78828125 140.0234375 121.1640625 C132.31639803 106.81518413 122.71254753 94.21438119 112 82 C111.20335937 81.07960938 110.40671875 80.15921875 109.5859375 79.2109375 C105.03039491 74.02920349 100.29724335 69.40964821 95 65 C93.74509766 63.89591797 93.74509766 63.89591797 92.46484375 62.76953125 C25.95364275 5.22407674 -69.92426866 -1.26741496 -182.3515625 68.52734375 Z " fill="#000000" transform="translate(298,35)"/>
<path d="M0 0 C1.19104843 0.00273422 1.19104843 0.00273422 2.40615845 0.00552368 C13.94683967 0.05014403 25.01571365 0.45202463 36.25 3.3125 C36.93932617 3.47878906 37.62865234 3.64507812 38.33886719 3.81640625 C59.62479234 9.02928588 77.41932321 19.18478399 93.25 34.3125 C93.86230469 34.86164063 94.47460938 35.41078125 95.10546875 35.9765625 C102.11724095 42.4909321 110.80320392 52.98728019 112.68359375 62.5078125 C112.69021973 65.78104635 112.44272037 67.99129938 110.75 70.8125 C107.74511516 72.61543091 105.69327882 72.78994877 102.25 72.84375 C97.05647046 71.46421871 94.61896619 65.92382859 92 61.625 C78.43760094 40.06254467 55.89139963 26.21065594 31.19775391 20.58032227 C-2.17779236 13.7250251 -36.33679474 17.71169182 -65.75 35.3125 C-68.91533428 37.47996497 -71.84250363 39.81378035 -74.75 42.3125 C-75.41128906 42.83070313 -76.07257813 43.34890625 -76.75390625 43.8828125 C-85.24775145 50.76432309 -91.26140837 59.9867252 -96.55859375 69.44921875 C-97.75 71.3125 -97.75 71.3125 -99.75 72.3125 C-106.94212843 72.89251036 -106.94212843 72.89251036 -110.1875 70.5625 C-111.77194159 68.28090411 -112.35452401 67.02645396 -112.75 64.3125 C-108.66939251 46.28713934 -89.89157227 29.37473029 -75.0625 19.6875 C-64.63417583 13.12779324 -53.98817428 8.44615819 -42.1875 5 C-41.3617749 4.75741455 -40.5360498 4.5148291 -39.68530273 4.26489258 C-26.56685991 0.64314233 -13.51600171 -0.06444683 0 0 Z " fill="#000000" transform="translate(255.75,287.6875)"/>
<path d="M0 0 C4.8846525 2.26787438 7.73212562 5.1153475 10 10 C10.75381535 15.5997712 10.77303575 20.33499991 8.375 25.5 C3.80134327 30.3143755 0.6912538 32.25156236 -6 32.5 C-12.6912538 32.25156236 -15.80134327 30.3143755 -20.375 25.5 C-22.77303575 20.33499991 -22.75381535 15.5997712 -22 10 C-17.52212837 0.3553534 -9.85292056 -1.32635469 0 0 Z " fill="#000000" transform="translate(334,176)"/>
<path d="M0 0 C4.8846525 2.26787438 7.73212562 5.1153475 10 10 C10.75381535 15.5997712 10.77303575 20.33499991 8.375 25.5 C3.80134327 30.3143755 0.6912538 32.25156236 -6 32.5 C-12.6912538 32.25156236 -15.80134327 30.3143755 -20.375 25.5 C-22.77303575 20.33499991 -22.75381535 15.5997712 -22 10 C-17.52212837 0.3553534 -9.85292056 -1.32635469 0 0 Z " fill="#000000" transform="translate(190,176)"/>
</svg>
