<?xml version="1.0" encoding="UTF-8"?>
<!DOCTYPE svg PUBLIC "-//W3C//DTD SVG 1.1//EN" "http://www.w3.org/Graphics/SVG/1.1/DTD/svg11.dtd">
<svg xmlns="http://www.w3.org/2000/svg" version="1.1" width="512px" height="512px" style="shape-rendering:geometricPrecision; text-rendering:geometricPrecision; image-rendering:optimizeQuality; fill-rule:evenodd; clip-rule:evenodd" xmlns:xlink="http://www.w3.org/1999/xlink">
<g><path style="opacity:0.929" fill="#000000" d="M 234.5,31.5 C 312.835,26.7692 377.669,53.7692 429,112.5C 477.656,175.451 491.323,245.451 470,322.5C 444.833,395.667 395.667,444.833 322.5,470C 245.451,491.323 175.451,477.656 112.5,429C 49.051,373.012 22.8843,302.845 34,218.5C 47.5389,148.197 85.0389,95.03 146.5,59C 174.118,43.9358 203.452,34.7692 234.5,31.5 Z M 254.5,47.5 C 333.413,50.352 393.579,85.0187 435,151.5C 467.221,210.934 471.221,272.267 447,335.5C 424.5,387.333 387.333,424.5 335.5,447C 264.482,474.081 197.482,466.414 134.5,424C 67.8586,372.475 40.0253,304.642 51,220.5C 65.8585,146.991 107.358,94.8245 175.5,64C 201,53.8013 227.333,48.3013 254.5,47.5 Z"/></g>
<g><path style="opacity:0.937" fill="#000000" d="M 177.5,175.5 C 196.778,174.61 203.278,183.276 197,201.5C 190.055,208.069 182.222,209.236 173.5,205C 166.931,198.055 165.764,190.222 170,181.5C 172.114,178.879 174.614,176.879 177.5,175.5 Z"/></g>
<g><path style="opacity:0.937" fill="#000000" d="M 321.5,175.5 C 340.778,174.61 347.278,183.276 341,201.5C 334.055,208.069 326.222,209.236 317.5,205C 310.931,198.055 309.764,190.222 314,181.5C 316.114,178.879 318.614,176.879 321.5,175.5 Z"/></g>
<g><path style="opacity:0.928" fill="#000000" d="M 237.5,287.5 C 268.536,284.282 297.869,289.782 325.5,304C 343.435,314.601 357.268,329.101 367,347.5C 368.536,358.497 364.036,361.997 353.5,358C 337.331,328.888 312.664,311.555 279.5,306C 248.925,300.702 219.925,305.368 192.5,320C 177.01,329.156 165.343,341.823 157.5,358C 150.102,361.481 145.102,359.481 142.5,352C 156.377,321.863 179.377,302.197 211.5,293C 220.193,290.613 228.86,288.78 237.5,287.5 Z"/></g>
</svg>
